# xmcd CD database file
#
# Track frame offsets:
#	150
#	37300
#	90197
#	147937
#	202890
#	225462
#	240340
#	266612
#	280035
#	308380
#
# Disc length: 4418 seconds
#
# Revision: 0
# Processed by: cddbd v1.5.1PL2 Copyright (c) Steve Scherf et al.
# Submitted via: CDex 1.51
#
DISCID=7611400a
DTITLE=CDドラマ - CDドラマ EVE burst error 小次郎編
DYEAR=1998
DGENRE=Game
TTITLE0=After she has gone Part 1 再会
TTITLE1=The echoes of an era Part 1 尾行
TTITLE2=The echoes of an era Part 2 依頼
TTITLE3=The echoes of an era Part 3 疑惑
TTITLE4=The echoes of an era Part 4 崩壊
TTITLE5=After she has gone Part 2 涙
TTITLE6=ひとり？
TTITLE7=小次郎最後の審判
TTITLE8=Three years later Part 1 天城探偵事務所
TTITLE9=Last Mission
EXTD=YEAR: 1998
EXTT0=
EXTT1=
EXTT2=
EXTT3=
EXTT4=
EXTT5=
EXTT6=
EXTT7=
EXTT8=
EXTT9=
PLAYORDER=
